<svg xmlns="http://www.w3.org/2000/svg" viewBox="0 0 54.79 53.01"><title>Home</title><g id="Layer_2" data-name="Layer 2"><g id="Layer_1-2" data-name="Layer 1"><path id="Path_1" data-name="Path 1" d="M52.46,19.31,28.7,1.94a2.27,2.27,0,0,0-2.69,0L2.25,19.31c-.38.36-.75.69-.75,2.46V50a1.45,1.45,0,0,0,1.34,1.53H19.47V31.38A2.59,2.59,0,0,1,22,28.79H32.75a2.59,2.59,0,0,1,2.57,2.59V51.5H51.63A1.58,1.58,0,0,0,53.24,50v0l0-28C53.24,20.44,53.26,19.89,52.46,19.31Z" fill="none" stroke="#fff" stroke-width="3"/></g></g></svg>