<svg xmlns="http://www.w3.org/2000/svg" viewBox="0 0 52.8 57"><title>Hosting</title><g id="Layer_2" data-name="Layer 2"><g id="Layer_1-2" data-name="Layer 1"><path id="Path_22615" data-name="Path 22615" d="M21.05,14.08c-.06.12-.15.28-.27.32a1.2,1.2,0,1,0,.71,2.29,2.88,2.88,0,0,0,1.73-1.58c.79-1.65.6-4.4-.51-7.18-1-2.42-1-4.43-.57-5.26a.6.6,0,0,1,.28-.32A1.21,1.21,0,0,0,23.21.84,1.21,1.21,0,0,0,21.7.06,2.84,2.84,0,0,0,20,1.63c-.79,1.66-.6,4.41.5,7.18C21.44,11.24,21.45,13.24,21.05,14.08Z" fill="#fff"/><path id="Path_22616" data-name="Path 22616" d="M27.07,14.46a1.2,1.2,0,0,0,.36,2.34,1,1,0,0,0,.36-.06,2.4,2.4,0,0,0,1.48-1.34c.65-1.35.51-3.5-.37-5.74S28.28,6,28.52,5.74a1.2,1.2,0,0,0,.77-1.51,1.21,1.21,0,0,0-1.52-.77A2.42,2.42,0,0,0,26.3,4.81c-.65,1.35-.51,3.5.36,5.73S27.28,14.25,27.07,14.46Z" fill="#fff"/><path id="Path_22617" data-name="Path 22617" d="M14.7,14.46a1.2,1.2,0,0,0,.36,2.34,1.15,1.15,0,0,0,.37-.06A2.41,2.41,0,0,0,16.9,15.4c.65-1.35.51-3.5-.37-5.74S15.91,6,16.15,5.74a1.2,1.2,0,0,0,.77-1.51,1.21,1.21,0,0,0-1.52-.77,2.45,2.45,0,0,0-1.47,1.35c-.65,1.35-.51,3.5.37,5.73S14.91,14.25,14.7,14.46Z" fill="#fff"/><path id="Path_22618" data-name="Path 22618" d="M46.2,25.8H43.12c.05-1,.08-2,.08-3A1.81,1.81,0,0,0,41.4,21H1.8A1.81,1.81,0,0,0,0,22.8H0C0,38.62,6.33,51,14.4,51H28.8c3.78,0,7.16-2.73,9.7-7.23l.18,0H43.8a9,9,0,0,0,9-9V32.4A6.61,6.61,0,0,0,46.2,25.8ZM28.8,47.4H14.4c-5,0-10.32-9.09-10.76-22.8H39.56C39.12,38.3,33.8,47.4,28.8,47.4Zm15-7.2H40.19A43.13,43.13,0,0,0,42.8,29.4h3.4a3,3,0,0,1,3,3v2.4a5.4,5.4,0,0,1-5.4,5.4Z" fill="#fff"/><path id="Path_22619" data-name="Path 22619" d="M40.8,53.4H2.4a1.8,1.8,0,0,0,0,3.6H40.8a1.8,1.8,0,0,0,0-3.6Z" fill="#fff"/></g></g></svg>